# xmcd CD database file
#
# Track frame offsets:
#	150
#	20940
#	36672
#	55150
#	78216
#	100082
#	117315
#	136325
#	152954
#	178113
#	195698
#	212566
#	229757
#	246323
#	266063
#	289167
#	305429
#
# Disc length: 4269 seconds
#
# Revision: 1
# Processed by: cddbd v1.5.2PL0 Copyright (c) Steve Scherf et al.
# Submitted via: CDex 1.70beta2
#
DISCID=fc10ab11
DTITLE=Various Artist - Famous 5 - The Finest Female Jazz Today
DYEAR=2006
DGENRE=Jazz
TTITLE0=Gabin feat. Dee Dee Bridgewater - Into My Soul
TTITLE1=Katie Melua - Shy Boy
TTITLE2=Corinne Bailey Rae - I'd Like To
TTITLE3=Cassandra Wilson - It Would Be So Easy
TTITLE4=Rebecka Törnqvist - Nothing Ever
TTITLE5=4hero/Horace Silver feat. Vanessa Freeman - Won't You Open Up Your Senses
TTITLE6=Lena Horne - Singin' In The Rain
TTITLE7=Eva Mattes - Every Time We Say Goodbye
TTITLE8=Caecilie Norby - Remember Rosa
TTITLE9=Holly Cole - I've Just Seen A Face
TTITLE10=Jackie Allen - Hot Stone Soup
TTITLE11=Julia Hülsmann Trio and Anna Lauvergnac - Cowboy
TTITLE12=Patricia Barber - Narcissus
TTITLE13=Jason Miles feat. Chiara Civello - I Want You
TTITLE14=Doky Brothers - Waiting In Vain
TTITLE15=Joss Stone - The Chokin' Kind
TTITLE16=Candi Staton - When Will I
EXTD=YEAR: 2006
EXTT0=
EXTT1=
EXTT2=
EXTT3=
EXTT4=
EXTT5=
EXTT6=
EXTT7=
EXTT8=
EXTT9=
EXTT10=
EXTT11=
EXTT12=
EXTT13=
EXTT14=
EXTT15=
EXTT16=
PLAYORDER=
